{
  "accessors": [
    {
      "bufferView": 2,
      "componentType": 5126,
      "count": 904,
      "max": [
        0.9450359344482422,
        0.276777058839798,
        0.871856689453125
      ],
      "min": [
        -1.8294918537139893,
        -1.5247282981872559,
        -0.461944580078125
      ],
      "type": "VEC3"
    },
    {
      "bufferView": 2,
      "byteOffset": 10848,
      "componentType": 5126,
      "count": 904,
      "max": [
        0.9974295496940613,
        0.9999984502792358,
        0.9998999238014221
      ],
      "min": [
        -0.9994639754295349,
        -0.9988096952438354,
        -0.9998999238014221
      ],
      "type": "VEC3"
    },
    {
      "bufferView": 1,
      "componentType": 5126,
      "count": 904,
      "max": [
        1.0,
        0.9187811613082886
      ],
      "min": [
        0.0,
        -1.7477677833645233e-17
      ],
      "type": "VEC2"
    },
    {
      "bufferView": 0,
      "componentType": 5125,
      "count": 3852,
      "type": "SCALAR"
    }
  ],
  "asset": {
    "extras": {
      "author": "SR_Spark (https://sketchfab.com/SR_Spark)",
      "license": "CC-BY-4.0 (http://creativecommons.org/licenses/by/4.0/)",
      "source": "https://sketchfab.com/3d-models/dolphing-fa8bd5121f0a413ab341fd671acf0c25",
      "title": "Dolphing"
    },
    "generator": "Sketchfab-14.27.0",
    "version": "2.0"
  },
  "bufferViews": [
    {
      "buffer": 0,
      "byteLength": 15408,
      "name": "floatBufferViews",
      "target": 34963
    },
    {
      "buffer": 0,
      "byteLength": 7232,
      "byteOffset": 15408,
      "byteStride": 8,
      "name": "floatBufferViews",
      "target": 34962
    },
    {
      "buffer": 0,
      "byteLength": 21696,
      "byteOffset": 22640,
      "byteStride": 12,
      "name": "floatBufferViews",
      "target": 34962
    }
  ],
  "buffers": [
    {
      "byteLength": 44336,
      "uri": "scene.bin"
    }
  ],
  "images": [
    {
      "uri": "textures/dolphin_baseColor.png"
    }
  ],
  "materials": [
    {
      "doubleSided": true,
      "name": "dolphin",
      "pbrMetallicRoughness": {
        "baseColorTexture": {
          "index": 0
        },
        "metallicFactor": 0.0,
        "roughnessFactor": 0.8929713596497552
      }
    }
  ],
  "meshes": [
    {
      "name": "dolphin_dolphin_0",
      "primitives": [
        {
          "attributes": {
            "NORMAL": 1,
            "POSITION": 0,
            "TEXCOORD_0": 2
          },
          "indices": 3,
          "material": 0,
          "mode": 4
        }
      ]
    }
  ],
  "nodes": [
    {
      "children": [
        1
      ],
      "matrix": [
        1.0,
        0.0,
        0.0,
        0.0,
        0.0,
        2.220446049250313e-16,
        -1.0,
        0.0,
        0.0,
        1.0,
        2.220446049250313e-16,
        0.0,
        0.0,
        0.0,
        0.0,
        1.0
      ],
      "name": "Sketchfab_model"
    },
    {
      "children": [
        2
      ],
      "matrix": [
        0.02539999969303608,
        0.0,
        0.0,
        0.0,
        0.0,
        0.0,
        0.02539999969303608,
        0.0,
        0.0,
        -0.02539999969303608,
        0.0,
        0.0,
        0.0,
        0.0,
        0.0,
        1.0
      ],
      "name": "poster_island_dolphin.fbx"
    },
    {
      "children": [
        3
      ],
      "name": "RootNode"
    },
    {
      "children": [
        4
      ],
      "matrix": [
        -0.6999999880790633,
        8.572527448042295e-17,
        -1.0569706160968749e-07,
        0.0,
        1.7305962585820215e-14,
        0.6999999880790617,
        -1.1404447511672065e-07,
        0.0,
        1.0569706160968609e-07,
        -1.1404447511672195e-07,
        -0.699999988079054,
        0.0,
        0.0,
        0.0,
        0.0,
        1.0
      ],
      "name": "dolphin"
    },
    {
      "children": [
        5
      ],
      "matrix": [
        1.0,
        0.0,
        -0.0,
        0.0,
        0.0,
        1.0,
        0.0,
        0.0,
        0.0,
        0.0,
        1.0,
        0.0,
        0.44222795963287354,
        0.6239756345748901,
        -0.20495568215847015,
        1.0
      ],
      "name": "Object_4"
    },
    {
      "mesh": 0,
      "name": "dolphin_dolphin_0"
    }
  ],
  "samplers": [
    {
      "magFilter": 9729,
      "minFilter": 9987,
      "wrapS": 10497,
      "wrapT": 10497
    }
  ],
  "scene": 0,
  "scenes": [
    {
      "name": "Sketchfab_Scene",
      "nodes": [
        0
      ]
    }
  ],
  "textures": [
    {
      "sampler": 0,
      "source": 0
    }
  ]
}
