{
  "accessors": [
    {
      "bufferView": 3,
      "componentType": 5126,
      "count": 170,
      "max": [
        0.9883000254631042,
        1.63496994972229,
        0.20126000046730042
      ],
      "min": [
        -1.2330498695373535,
        -1.6376899480819702,
        0.00934000313282013
      ],
      "type": "VEC3"
    },
    {
      "bufferView": 3,
      "byteOffset": 2040,
      "componentType": 5126,
      "count": 170,
      "max": [
        0.9963052868843079,
        1.0,
        0.9999993443489075
      ],
      "min": [
        -0.9924428462982178,
        -1.0,
        -0.9999520182609558
      ],
      "type": "VEC3"
    },
    {
      "bufferView": 4,
      "componentType": 5126,
      "count": 170,
      "max": [
        1.0,
        0.9805086851119995,
        0.9970290660858154,
        1.0
      ],
      "min": [
        -0.9999520778656006,
        -1.0,
        -0.9995844960212708,
        1.0
      ],
      "type": "VEC4"
    },
    {
      "bufferView": 2,
      "componentType": 5126,
      "count": 170,
      "max": [
        0.9909499883651733,
        0.9966300129890442
      ],
      "min": [
        0.003759999992325902,
        0.009109999984502792
      ],
      "type": "VEC2"
    },
    {
      "bufferView": 1,
      "componentType": 5125,
      "count": 348,
      "type": "SCALAR"
    },
    {
      "bufferView": 3,
      "byteOffset": 4080,
      "componentType": 5126,
      "count": 197,
      "max": [
        1.0558899641036987,
        1.6291899681091309,
        2.3526501655578613
      ],
      "min": [
        0.9027699828147888,
        -1.6324100494384766,
        0.12312999367713928
      ],
      "type": "VEC3"
    },
    {
      "bufferView": 3,
      "byteOffset": 6444,
      "componentType": 5126,
      "count": 197,
      "max": [
        0.9999951720237732,
        1.0,
        0.9839398264884949
      ],
      "min": [
        -0.9999988675117493,
        -1.0,
        -0.9917316436767578
      ],
      "type": "VEC3"
    },
    {
      "bufferView": 4,
      "byteOffset": 2720,
      "componentType": 5126,
      "count": 197,
      "max": [
        0.9887720942497253,
        0.015730977058410645,
        0.9801937937736511,
        1.0
      ],
      "min": [
        -0.9754769206047058,
        -1.0,
        -0.9917200803756714,
        1.0
      ],
      "type": "VEC4"
    },
    {
      "bufferView": 2,
      "byteOffset": 1360,
      "componentType": 5126,
      "count": 197,
      "max": [
        0.9994000196456909,
        0.9954599738121033
      ],
      "min": [
        0.011250000447034836,
        0.004540000110864639
      ],
      "type": "VEC2"
    },
    {
      "bufferView": 1,
      "byteOffset": 1392,
      "componentType": 5125,
      "count": 483,
      "type": "SCALAR"
    },
    {
      "bufferView": 5,
      "componentType": 5126,
      "count": 3,
      "max": [
        1.0,
        0.0,
        0.0,
        0.0,
        0.0,
        1.0,
        0.0,
        0.0,
        0.0,
        1.0,
        1.0,
        0.0,
        0.0,
        0.0,
        0.0,
        1.0
      ],
      "min": [
        1.0,
        0.0,
        0.0,
        0.0,
        0.0,
        0.0,
        -1.0,
        0.0,
        0.0,
        0.0,
        0.0,
        0.0,
        -0.9580900073051453,
        -0.16280999779701233,
        0.0,
        1.0
      ],
      "type": "MAT4"
    },
    {
      "bufferView": 0,
      "componentType": 5123,
      "count": 170,
      "type": "VEC4"
    },
    {
      "bufferView": 4,
      "byteOffset": 5872,
      "componentType": 5126,
      "count": 170,
      "max": [
        1.0,
        0.0,
        0.0,
        0.0
      ],
      "min": [
        1.0,
        0.0,
        0.0,
        0.0
      ],
      "type": "VEC4"
    },
    {
      "bufferView": 0,
      "byteOffset": 1360,
      "componentType": 5123,
      "count": 197,
      "type": "VEC4"
    },
    {
      "bufferView": 4,
      "byteOffset": 8592,
      "componentType": 5126,
      "count": 197,
      "max": [
        1.0,
        0.0,
        0.0,
        0.0
      ],
      "min": [
        1.0,
        0.0,
        0.0,
        0.0
      ],
      "type": "VEC4"
    },
    {
      "bufferView": 6,
      "componentType": 5126,
      "count": 1,
      "max": [
        0.0
      ],
      "min": [
        0.0
      ],
      "type": "SCALAR"
    },
    {
      "bufferView": 7,
      "componentType": 5126,
      "count": 1,
      "max": [
        0.7071067690849304,
        0.0,
        0.0,
        0.7071067690849304
      ],
      "min": [
        0.7071067690849304,
        0.0,
        0.0,
        0.7071067690849304
      ],
      "type": "VEC4"
    },
    {
      "bufferView": 6,
      "byteOffset": 4,
      "componentType": 5126,
      "count": 83,
      "max": [
        8.333330154418945
      ],
      "min": [
        0.0
      ],
      "type": "SCALAR"
    },
    {
      "bufferView": 7,
      "byteOffset": 16,
      "componentType": 5126,
      "count": 83,
      "max": [
        0.0,
        0.0,
        0.7071067690849304,
        1.0
      ],
      "min": [
        0.0,
        0.0,
        0.0,
        0.7071067690849304
      ],
      "type": "VEC4"
    }
  ],
  "animations": [
    {
      "channels": [
        {
          "sampler": 0,
          "target": {
            "node": 6,
            "path": "rotation"
          }
        },
        {
          "sampler": 1,
          "target": {
            "node": 7,
            "path": "rotation"
          }
        }
      ],
      "name": "ArmatureAction",
      "samplers": [
        {
          "input": 15,
          "interpolation": "LINEAR",
          "output": 16
        },
        {
          "input": 17,
          "interpolation": "LINEAR",
          "output": 18
        }
      ]
    }
  ],
  "asset": {
    "extras": {
      "author": "nikhilmohan (https://sketchfab.com/nikhilmohan.1)",
      "license": "CC-BY-4.0 (http://creativecommons.org/licenses/by/4.0/)",
      "source": "https://sketchfab.com/3d-models/notebook-low-poly-version-3d-model-57a29e53b1f94410b9ba7c7403f9c91e",
      "title": "Notebook Low-Poly Version 3D Model"
    },
    "generator": "Sketchfab-12.67.0",
    "version": "2.0"
  },
  "bufferViews": [
    {
      "buffer": 0,
      "byteLength": 2936,
      "byteStride": 8,
      "name": "shortBufferViews",
      "target": 34962
    },
    {
      "buffer": 0,
      "byteLength": 3324,
      "byteOffset": 2936,
      "name": "floatBufferViews",
      "target": 34963
    },
    {
      "buffer": 0,
      "byteLength": 2936,
      "byteOffset": 6260,
      "byteStride": 8,
      "name": "floatBufferViews",
      "target": 34962
    },
    {
      "buffer": 0,
      "byteLength": 8808,
      "byteOffset": 9196,
      "byteStride": 12,
      "name": "floatBufferViews",
      "target": 34962
    },
    {
      "buffer": 0,
      "byteLength": 11744,
      "byteOffset": 18004,
      "byteStride": 16,
      "name": "floatBufferViews",
      "target": 34962
    },
    {
      "buffer": 0,
      "byteLength": 192,
      "byteOffset": 29748,
      "name": "floatBufferViews"
    },
    {
      "buffer": 0,
      "byteLength": 336,
      "byteOffset": 29940,
      "name": "floatBufferViews"
    },
    {
      "buffer": 0,
      "byteLength": 1344,
      "byteOffset": 30276,
      "byteStride": 16,
      "name": "floatBufferViews"
    }
  ],
  "buffers": [
    {
      "byteLength": 31620,
      "uri": "scene.bin"
    }
  ],
  "images": [
    {
      "uri": "textures/Lowpoly_Body_baseColor.jpeg"
    },
    {
      "uri": "textures/Lowpoly_Body_normal.png"
    },
    {
      "uri": "textures/Lowpoly_Screen_baseColor.jpeg"
    },
    {
      "uri": "textures/Lowpoly_Screen_normal.png"
    }
  ],
  "materials": [
    {
      "doubleSided": true,
      "name": "Lowpoly_Body",
      "normalTexture": {
        "index": 1
      },
      "pbrMetallicRoughness": {
        "baseColorTexture": {
          "index": 0
        },
        "metallicFactor": 0.0,
        "roughnessFactor": 0.6
      }
    },
    {
      "doubleSided": true,
      "name": "Lowpoly_Screen",
      "normalTexture": {
        "index": 3
      },
      "pbrMetallicRoughness": {
        "baseColorTexture": {
          "index": 2
        },
        "metallicFactor": 0.0,
        "roughnessFactor": 0.6
      }
    }
  ],
  "meshes": [
    {
      "name": "Lowpoly_Notebook",
      "primitives": [
        {
          "attributes": {
            "JOINTS_0": 11,
            "NORMAL": 1,
            "POSITION": 0,
            "TANGENT": 2,
            "TEXCOORD_0": 3,
            "TEXCOORD_1": 3,
            "TEXCOORD_2": 3,
            "TEXCOORD_3": 3,
            "WEIGHTS_0": 12
          },
          "indices": 4,
          "material": 0,
          "mode": 4
        }
      ]
    },
    {
      "name": "Lowpoly_Notebook",
      "primitives": [
        {
          "attributes": {
            "JOINTS_0": 13,
            "NORMAL": 6,
            "POSITION": 5,
            "TANGENT": 7,
            "TEXCOORD_0": 8,
            "TEXCOORD_1": 8,
            "TEXCOORD_2": 8,
            "TEXCOORD_3": 8,
            "WEIGHTS_0": 14
          },
          "indices": 9,
          "material": 1,
          "mode": 4
        }
      ]
    }
  ],
  "nodes": [
    {
      "children": [
        1
      ],
      "matrix": [
        1.0,
        0.0,
        0.0,
        0.0,
        0.0,
        2.220446049250313e-16,
        -1.0,
        0.0,
        0.0,
        1.0,
        2.220446049250313e-16,
        0.0,
        0.0,
        0.0,
        0.0,
        1.0
      ],
      "name": "Sketchfab_model"
    },
    {
      "children": [
        2,
        4
      ],
      "name": "Root"
    },
    {
      "children": [
        3
      ],
      "matrix": [
        0.8908700000000002,
        -0.22621000000000005,
        0.39393000000000006,
        0.0,
        0.03348,
        0.8975200000000001,
        0.43970000000000004,
        0.0,
        -0.45302000000000003,
        -0.37853000000000003,
        0.80715,
        0.0,
        -0.38378000000000007,
        -1.6136599999999999,
        1.85484,
        1.0
      ],
      "name": "Hemi"
    },
    {
      "name": "Hemi"
    },
    {
      "children": [
        5,
        9,
        10,
        8
      ],
      "matrix": [
        1.0,
        0.0,
        0.0,
        0.0,
        0.0,
        1.0,
        0.0,
        0.0,
        0.0,
        0.0,
        1.0,
        0.0,
        -0.7664700000000001,
        -0.0,
        -0.13025,
        1.0
      ],
      "name": "Armature"
    },
    {
      "children": [
        6
      ],
      "name": "Armature_rootJoint"
    },
    {
      "children": [
        7
      ],
      "name": "Bone_Armature",
      "rotation": [
        0.7071068286895752,
        0.0,
        0.0,
        0.7071068286895752
      ],
      "scale": [
        1.0,
        1.0,
        1.0
      ],
      "translation": [
        0.0,
        0.0,
        0.0
      ]
    },
    {
      "name": "Bone.001_Armature",
      "rotation": [
        0.0,
        0.0,
        0.0,
        1.0
      ],
      "scale": [
        1.0,
        1.0,
        1.0
      ],
      "translation": [
        0.9580900073051453,
        0.16280999779701233,
        0.0
      ]
    },
    {
      "matrix": [
        1.0,
        0.0,
        0.0,
        0.0,
        0.0,
        1.0,
        0.0,
        0.0,
        0.0,
        0.0,
        1.0,
        0.0,
        0.9580900000000001,
        0.0,
        0.16281000000000004,
        1.0
      ],
      "name": "Lowpoly_Notebook"
    },
    {
      "mesh": 0,
      "name": "Lowpoly_Notebook_0",
      "skin": 0
    },
    {
      "mesh": 1,
      "name": "Lowpoly_Notebook_1",
      "skin": 0
    }
  ],
  "samplers": [
    {
      "magFilter": 9729,
      "minFilter": 9987,
      "wrapS": 10497,
      "wrapT": 10497
    }
  ],
  "scene": 0,
  "scenes": [
    {
      "name": "Sketchfab_Scene",
      "nodes": [
        0
      ]
    }
  ],
  "skins": [
    {
      "inverseBindMatrices": 10,
      "joints": [
        5,
        6,
        7
      ],
      "skeleton": 5
    }
  ],
  "textures": [
    {
      "sampler": 0,
      "source": 0
    },
    {
      "sampler": 0,
      "source": 1
    },
    {
      "sampler": 0,
      "source": 2
    },
    {
      "sampler": 0,
      "source": 3
    }
  ]
}
