{
  "accessors": [
    {
      "bufferView": 2,
      "componentType": 5126,
      "count": 642,
      "max": [
        2.372817277908325,
        3.8454580307006836,
        1.5501731634140015
      ],
      "min": [
        -2.372817277908325,
        -2.7315151691436768,
        -1.349708914756775
      ],
      "type": "VEC3"
    },
    {
      "bufferView": 2,
      "byteOffset": 7704,
      "componentType": 5126,
      "count": 642,
      "max": [
        0.9923208951950073,
        0.9999872446060181,
        0.999967098236084
      ],
      "min": [
        -0.9923208951950073,
        -0.9989959597587585,
        -0.9881513714790344
      ],
      "type": "VEC3"
    },
    {
      "bufferView": 1,
      "componentType": 5126,
      "count": 642,
      "max": [
        0.18393075466156006,
        0.8155437707901001
      ],
      "min": [
        0.06034604087471962,
        0.5101062059402466
      ],
      "type": "VEC2"
    },
    {
      "bufferView": 0,
      "componentType": 5125,
      "count": 3228,
      "type": "SCALAR"
    },
    {
      "bufferView": 2,
      "byteOffset": 15408,
      "componentType": 5126,
      "count": 153,
      "max": [
        0.856657862663269,
        2.812178373336792,
        -0.39633119106292725
      ],
      "min": [
        -0.856657862663269,
        -2.6517157554626465,
        -1.3467961549758911
      ],
      "type": "VEC3"
    },
    {
      "bufferView": 2,
      "byteOffset": 17244,
      "componentType": 5126,
      "count": 153,
      "max": [
        0.9701903462409973,
        0.7045698761940002,
        0.5379557013511658
      ],
      "min": [
        -0.9701903462409973,
        -0.9400783181190491,
        -0.9997789859771729
      ],
      "type": "VEC3"
    },
    {
      "bufferView": 1,
      "byteOffset": 5136,
      "componentType": 5126,
      "count": 153,
      "max": [
        0.3818650245666504,
        0.762615442276001
      ],
      "min": [
        0.26096320152282715,
        0.4042850732803345
      ],
      "type": "VEC2"
    },
    {
      "bufferView": 0,
      "byteOffset": 12912,
      "componentType": 5125,
      "count": 738,
      "type": "SCALAR"
    },
    {
      "bufferView": 2,
      "byteOffset": 19080,
      "componentType": 5126,
      "count": 30,
      "max": [
        0.7474237680435181,
        -1.7206883430480957,
        -0.5929017066955566
      ],
      "min": [
        -0.7474237680435181,
        -2.644259214401245,
        -0.7576433420181274
      ],
      "type": "VEC3"
    },
    {
      "bufferView": 2,
      "byteOffset": 19440,
      "componentType": 5126,
      "count": 30,
      "max": [
        0.8551396727561951,
        0.002624629996716976,
        0.3525879383087158
      ],
      "min": [
        -0.8551396727561951,
        -0.9357787370681763,
        -0.9167414307594299
      ],
      "type": "VEC3"
    },
    {
      "bufferView": 1,
      "byteOffset": 6360,
      "componentType": 5126,
      "count": 30,
      "max": [
        0.36644870042800903,
        0.7894508838653564
      ],
      "min": [
        0.26096320152282715,
        0.6878814697265625
      ],
      "type": "VEC2"
    },
    {
      "bufferView": 0,
      "byteOffset": 15864,
      "componentType": 5125,
      "count": 84,
      "type": "SCALAR"
    },
    {
      "bufferView": 2,
      "byteOffset": 19800,
      "componentType": 5126,
      "count": 128,
      "max": [
        0.8378300070762634,
        -1.441853404045105,
        -0.18837004899978638
      ],
      "min": [
        -0.8378300070762634,
        -1.6420806646347046,
        -0.3893834948539734
      ],
      "type": "VEC3"
    },
    {
      "bufferView": 2,
      "byteOffset": 21336,
      "componentType": 5126,
      "count": 128,
      "max": [
        0.9868990182876587,
        0.9080071449279785,
        0.992636501789093
      ],
      "min": [
        -0.9868990182876587,
        -0.9964788556098938,
        -0.9155749678611755
      ],
      "type": "VEC3"
    },
    {
      "bufferView": 1,
      "byteOffset": 6600,
      "componentType": 5126,
      "count": 128,
      "max": [
        1.0,
        1.0
      ],
      "min": [
        0.0,
        0.5
      ],
      "type": "VEC2"
    },
    {
      "bufferView": 0,
      "byteOffset": 16200,
      "componentType": 5125,
      "count": 504,
      "type": "SCALAR"
    },
    {
      "bufferView": 2,
      "byteOffset": 22872,
      "componentType": 5126,
      "count": 128,
      "max": [
        0.8399196863174438,
        -1.5516490936279297,
        -0.23614808917045593
      ],
      "min": [
        -0.8399196863174438,
        -1.615920901298523,
        -0.3012242317199707
      ],
      "type": "VEC3"
    },
    {
      "bufferView": 2,
      "byteOffset": 24408,
      "componentType": 5126,
      "count": 128,
      "max": [
        0.9915832877159119,
        0.9875419735908508,
        0.9673140048980713
      ],
      "min": [
        -0.9915832877159119,
        -0.9963504672050476,
        -0.9330412745475769
      ],
      "type": "VEC3"
    },
    {
      "bufferView": 1,
      "byteOffset": 7624,
      "componentType": 5126,
      "count": 128,
      "max": [
        1.0,
        1.0
      ],
      "min": [
        0.0,
        0.5
      ],
      "type": "VEC2"
    },
    {
      "bufferView": 0,
      "byteOffset": 18216,
      "componentType": 5125,
      "count": 564,
      "type": "SCALAR"
    }
  ],
  "asset": {
    "extras": {
      "author": "Liberi Arcano (https://sketchfab.com/LiberiArcano)",
      "license": "CC-BY-4.0 (http://creativecommons.org/licenses/by/4.0/)",
      "source": "https://sketchfab.com/3d-models/3december-2021-day-8-whale-8d6baa6cf6d94d5888fd65b4c7dd8fa2",
      "title": "3December 2021 Day 8: Whale"
    },
    "generator": "Sketchfab-12.66.0",
    "version": "2.0"
  },
  "bufferViews": [
    {
      "buffer": 0,
      "byteLength": 20472,
      "name": "floatBufferViews",
      "target": 34963
    },
    {
      "buffer": 0,
      "byteLength": 8648,
      "byteOffset": 20472,
      "byteStride": 8,
      "name": "floatBufferViews",
      "target": 34962
    },
    {
      "buffer": 0,
      "byteLength": 25944,
      "byteOffset": 29120,
      "byteStride": 12,
      "name": "floatBufferViews",
      "target": 34962
    }
  ],
  "buffers": [
    {
      "byteLength": 55064,
      "uri": "scene.bin"
    }
  ],
  "images": [
    {
      "uri": "textures/Whale_Base_baseColor.png"
    }
  ],
  "materials": [
    {
      "doubleSided": true,
      "name": "Whale_Base",
      "pbrMetallicRoughness": {
        "baseColorTexture": {
          "index": 0
        },
        "metallicFactor": 0.0
      }
    },
    {
      "doubleSided": true,
      "name": "Whale_Belly",
      "pbrMetallicRoughness": {
        "baseColorTexture": {
          "index": 0
        },
        "metallicFactor": 0.0
      }
    },
    {
      "doubleSided": true,
      "name": "Material.001",
      "pbrMetallicRoughness": {
        "baseColorFactor": [
          0.0419093,
          0.045535,
          0.0514107,
          1.0
        ],
        "metallicFactor": 0.0
      }
    },
    {
      "doubleSided": true,
      "name": "Eyes",
      "pbrMetallicRoughness": {
        "baseColorFactor": [
          0.0,
          0.0,
          0.0,
          1.0
        ],
        "metallicFactor": 0.0
      }
    },
    {
      "doubleSided": true,
      "name": "White",
      "pbrMetallicRoughness": {
        "metallicFactor": 0.0
      }
    }
  ],
  "meshes": [
    {
      "name": "Plane_Whale_Base_0",
      "primitives": [
        {
          "attributes": {
            "NORMAL": 1,
            "POSITION": 0,
            "TEXCOORD_0": 2
          },
          "indices": 3,
          "material": 0,
          "mode": 4
        }
      ]
    },
    {
      "name": "Plane_Whale_Belly_0",
      "primitives": [
        {
          "attributes": {
            "NORMAL": 5,
            "POSITION": 4,
            "TEXCOORD_0": 6
          },
          "indices": 7,
          "material": 1,
          "mode": 4
        }
      ]
    },
    {
      "name": "Plane_Material.001_0",
      "primitives": [
        {
          "attributes": {
            "NORMAL": 9,
            "POSITION": 8,
            "TEXCOORD_0": 10
          },
          "indices": 11,
          "material": 2,
          "mode": 4
        }
      ]
    },
    {
      "name": "Plane_Eyes_0",
      "primitives": [
        {
          "attributes": {
            "NORMAL": 13,
            "POSITION": 12,
            "TEXCOORD_0": 14
          },
          "indices": 15,
          "material": 3,
          "mode": 4
        }
      ]
    },
    {
      "name": "Plane_White_0",
      "primitives": [
        {
          "attributes": {
            "NORMAL": 17,
            "POSITION": 16,
            "TEXCOORD_0": 18
          },
          "indices": 19,
          "material": 4,
          "mode": 4
        }
      ]
    }
  ],
  "nodes": [
    {
      "children": [
        1
      ],
      "matrix": [
        1.0,
        0.0,
        0.0,
        0.0,
        0.0,
        2.220446049250313e-16,
        -1.0,
        0.0,
        0.0,
        1.0,
        2.220446049250313e-16,
        0.0,
        0.0,
        0.0,
        0.0,
        1.0
      ],
      "name": "Sketchfab_model"
    },
    {
      "children": [
        2
      ],
      "matrix": [
        0.009999999776482582,
        0.0,
        0.0,
        0.0,
        0.0,
        0.0,
        0.009999999776482582,
        0.0,
        0.0,
        -0.009999999776482582,
        0.0,
        0.0,
        0.0,
        0.0,
        0.0,
        1.0
      ],
      "name": "16626cad54b04f9390689e05e3ddc7c4.fbx"
    },
    {
      "children": [
        3
      ],
      "name": "RootNode"
    },
    {
      "children": [
        4,
        5,
        6,
        7,
        8
      ],
      "matrix": [
        100.0,
        -8.120293107090166e-16,
        -1.485384123338877e-17,
        0.0,
        1.485247307107272e-17,
        3.6570574207959283,
        -99.93310728192635,
        0.0,
        8.120293357346274e-16,
        99.93310728192635,
        3.6570574207959283,
        0.0,
        0.0,
        0.0,
        0.0,
        1.0
      ],
      "name": "Plane"
    },
    {
      "mesh": 0,
      "name": "Plane_Whale_Base_0"
    },
    {
      "mesh": 1,
      "name": "Plane_Whale_Belly_0"
    },
    {
      "mesh": 2,
      "name": "Plane_Material.001_0"
    },
    {
      "mesh": 3,
      "name": "Plane_Eyes_0"
    },
    {
      "mesh": 4,
      "name": "Plane_White_0"
    }
  ],
  "samplers": [
    {
      "magFilter": 9729,
      "minFilter": 9987,
      "wrapS": 10497,
      "wrapT": 10497
    }
  ],
  "scene": 0,
  "scenes": [
    {
      "name": "Sketchfab_Scene",
      "nodes": [
        0
      ]
    }
  ],
  "textures": [
    {
      "sampler": 0,
      "source": 0
    }
  ]
}
